<mxfile host="app.diagrams.net" modified="2023-03-18T12:47:03.976Z" agent="5.0 (Windows NT 10.0; Win64; x64) AppleWebKit/537.36 (KHTML, like Gecko) Chrome/110.0.0.0 Safari/537.36 Edg/110.0.1587.50" etag="x0nxh7trjTbSKz708eYp" version="20.8.20" type="github">
  <diagram name="Page-1" id="90a13364-a465-7bf4-72fc-28e22215d7a0">
    <mxGraphModel dx="1231" dy="544" grid="1" gridSize="10" guides="1" tooltips="1" connect="1" arrows="1" fold="1" page="1" pageScale="1.5" pageWidth="1169" pageHeight="826" background="none" math="0" shadow="0">
      <root>
        <mxCell id="0" style=";html=1;" />
        <mxCell id="1" style=";html=1;" parent="0" />
        <mxCell id="vNdgeBDxmkW6QYGSxrCz-47" style="edgeStyle=orthogonalEdgeStyle;rounded=0;orthogonalLoop=1;jettySize=auto;html=1;exitX=1;exitY=0.5;exitDx=0;exitDy=0;entryX=0;entryY=0.5;entryDx=0;entryDy=0;" parent="1" edge="1">
          <mxGeometry relative="1" as="geometry">
            <mxPoint x="397" y="821.8199999999999" as="sourcePoint" />
            <mxPoint x="553.7700000000002" y="705.9999999999998" as="targetPoint" />
            <Array as="points">
              <mxPoint x="521" y="822" />
              <mxPoint x="521" y="706" />
            </Array>
          </mxGeometry>
        </mxCell>
        <mxCell id="TpKz-f_f-aNWDQD582IJ-84" value="Continous" style="whiteSpace=wrap;html=1;shadow=1;fontSize=10;fillColor=#fff2cc;strokeColor=#d6b656;horizontal=0;fontFamily=Tahoma;" parent="1" vertex="1">
          <mxGeometry x="364" y="790" width="32" height="63.64" as="geometry" />
        </mxCell>
        <mxCell id="vNdgeBDxmkW6QYGSxrCz-49" style="edgeStyle=orthogonalEdgeStyle;rounded=0;orthogonalLoop=1;jettySize=auto;html=1;" parent="1" edge="1">
          <mxGeometry relative="1" as="geometry">
            <mxPoint x="397" y="901.6470588235295" as="sourcePoint" />
            <mxPoint x="553.7700000000002" y="706.0000000000002" as="targetPoint" />
            <Array as="points">
              <mxPoint x="521" y="902" />
              <mxPoint x="521" y="706" />
            </Array>
          </mxGeometry>
        </mxCell>
        <mxCell id="TpKz-f_f-aNWDQD582IJ-85" value="Binary" style="whiteSpace=wrap;html=1;shadow=1;fontSize=10;fillColor=#fff2cc;strokeColor=#d6b656;horizontal=0;fontFamily=Tahoma;" parent="1" vertex="1">
          <mxGeometry x="364" y="869.86" width="32" height="63.64" as="geometry" />
        </mxCell>
        <mxCell id="TpKz-f_f-aNWDQD582IJ-113" style="edgeStyle=orthogonalEdgeStyle;rounded=0;orthogonalLoop=1;jettySize=auto;html=1;entryX=0;entryY=0.5;entryDx=0;entryDy=0;fontFamily=Verdana;fontSize=10;" parent="1" source="TpKz-f_f-aNWDQD582IJ-48" target="TpKz-f_f-aNWDQD582IJ-61" edge="1">
          <mxGeometry relative="1" as="geometry">
            <mxPoint x="1035.7458064516131" y="439.44414012738844" as="targetPoint" />
            <Array as="points">
              <mxPoint x="756" y="453" />
            </Array>
          </mxGeometry>
        </mxCell>
        <mxCell id="TpKz-f_f-aNWDQD582IJ-123" style="edgeStyle=orthogonalEdgeStyle;rounded=0;orthogonalLoop=1;jettySize=auto;html=1;exitX=1;exitY=0.5;exitDx=0;exitDy=0;entryX=0;entryY=0.5;entryDx=0;entryDy=0;fontFamily=Verdana;fontSize=10;" parent="1" source="TpKz-f_f-aNWDQD582IJ-48" edge="1">
          <mxGeometry relative="1" as="geometry">
            <mxPoint x="818" y="703.9570212765962" as="targetPoint" />
          </mxGeometry>
        </mxCell>
        <mxCell id="TpKz-f_f-aNWDQD582IJ-48" value="Latent" style="whiteSpace=wrap;html=1;shadow=1;fontSize=10;fillColor=#f8cecc;strokeColor=#b85450;strokeWidth=2;dashed=1;horizontal=0;fontFamily=Tahoma;" parent="1" vertex="1">
          <mxGeometry x="743" y="674" width="32" height="60" as="geometry" />
        </mxCell>
        <mxCell id="TpKz-f_f-aNWDQD582IJ-56" style="edgeStyle=orthogonalEdgeStyle;rounded=0;orthogonalLoop=1;jettySize=auto;html=1;exitX=1;exitY=0.5;exitDx=0;exitDy=0;entryX=0;entryY=0.5;entryDx=0;entryDy=0;horizontal=0;fontSize=10;fontFamily=Tahoma;" parent="1" edge="1">
          <mxGeometry relative="1" as="geometry">
            <mxPoint x="850" y="703.9570212765962" as="sourcePoint" />
            <mxPoint x="890" y="703.9531914893619" as="targetPoint" />
          </mxGeometry>
        </mxCell>
        <mxCell id="TpKz-f_f-aNWDQD582IJ-89" value="Encoder-Dense-1" style="whiteSpace=wrap;html=1;shadow=1;fontSize=10;fillColor=#f5f5f5;strokeColor=#666666;horizontal=0;fontFamily=Tahoma;" parent="1" vertex="1">
          <mxGeometry x="620" y="612.9989361702128" width="32" height="184.9685106382979" as="geometry" />
        </mxCell>
        <mxCell id="vNdgeBDxmkW6QYGSxrCz-53" style="edgeStyle=orthogonalEdgeStyle;rounded=0;orthogonalLoop=1;jettySize=auto;html=1;exitX=1;exitY=0.5;exitDx=0;exitDy=0;" parent="1" source="TpKz-f_f-aNWDQD582IJ-90" edge="1">
          <mxGeometry relative="1" as="geometry">
            <mxPoint x="740" y="705" as="targetPoint" />
          </mxGeometry>
        </mxCell>
        <mxCell id="TpKz-f_f-aNWDQD582IJ-90" value="Encoder- Dense - 2" style="whiteSpace=wrap;html=1;shadow=1;fontSize=10;fillColor=#f5f5f5;strokeColor=#666666;horizontal=0;fontFamily=Tahoma;" parent="1" vertex="1">
          <mxGeometry x="680" y="652.2974468085106" width="32" height="105.43851063829787" as="geometry" />
        </mxCell>
        <mxCell id="TpKz-f_f-aNWDQD582IJ-91" style="edgeStyle=orthogonalEdgeStyle;rounded=0;orthogonalLoop=1;jettySize=auto;html=1;entryX=0;entryY=0.5;entryDx=0;entryDy=0;horizontal=0;fontSize=10;fontFamily=Tahoma;" parent="1" source="TpKz-f_f-aNWDQD582IJ-89" target="TpKz-f_f-aNWDQD582IJ-90" edge="1">
          <mxGeometry relative="1" as="geometry" />
        </mxCell>
        <mxCell id="TpKz-f_f-aNWDQD582IJ-94" style="edgeStyle=orthogonalEdgeStyle;rounded=0;orthogonalLoop=1;jettySize=auto;html=1;exitX=1;exitY=0.5;exitDx=0;exitDy=0;fontFamily=Verdana;fontSize=10;" parent="1" source="TpKz-f_f-aNWDQD582IJ-53" target="TpKz-f_f-aNWDQD582IJ-89" edge="1">
          <mxGeometry relative="1" as="geometry">
            <Array as="points">
              <mxPoint x="585" y="705" />
            </Array>
          </mxGeometry>
        </mxCell>
        <mxCell id="3a17f1ce550125da-1" value="Latent" style="whiteSpace=wrap;html=1;shadow=1;fontSize=10;fillColor=#f8cecc;strokeColor=#b85450;strokeWidth=2;dashed=1;horizontal=0;fontFamily=Tahoma;" parent="1" vertex="1">
          <mxGeometry x="252.9032258064516" y="107.69535031847134" width="32" height="42.038216560509554" as="geometry" />
        </mxCell>
        <mxCell id="TpKz-f_f-aNWDQD582IJ-9" style="edgeStyle=orthogonalEdgeStyle;rounded=0;orthogonalLoop=1;jettySize=auto;html=1;exitX=1;exitY=0.5;exitDx=0;exitDy=0;entryX=0;entryY=0.5;entryDx=0;entryDy=0;horizontal=0;fontSize=10;fontFamily=Tahoma;" parent="1" source="TpKz-f_f-aNWDQD582IJ-1" target="3a17f1ce550125da-1" edge="1">
          <mxGeometry relative="1" as="geometry" />
        </mxCell>
        <mxCell id="TpKz-f_f-aNWDQD582IJ-10" style="edgeStyle=orthogonalEdgeStyle;rounded=0;orthogonalLoop=1;jettySize=auto;html=1;exitX=1;exitY=0.5;exitDx=0;exitDy=0;entryX=0;entryY=0.5;entryDx=0;entryDy=0;horizontal=0;fontSize=10;fontFamily=Tahoma;" parent="1" source="3a17f1ce550125da-1" target="3a17f1ce550125da-4" edge="1">
          <mxGeometry relative="1" as="geometry" />
        </mxCell>
        <mxCell id="3a17f1ce550125da-4" value="Decoder Dense-1" style="whiteSpace=wrap;html=1;shadow=1;fontSize=10;fillColor=#f5f5f5;strokeColor=#666666;horizontal=0;fontFamily=Tahoma;" parent="1" vertex="1">
          <mxGeometry x="308.23" y="75.99744680851063" width="32" height="105.31914893617021" as="geometry" />
        </mxCell>
        <mxCell id="TpKz-f_f-aNWDQD582IJ-11" style="edgeStyle=orthogonalEdgeStyle;rounded=0;orthogonalLoop=1;jettySize=auto;html=1;exitX=1;exitY=0.5;exitDx=0;exitDy=0;entryX=0;entryY=0.5;entryDx=0;entryDy=0;horizontal=0;fontSize=10;fontFamily=Tahoma;" parent="1" source="3a17f1ce550125da-4" target="TpKz-f_f-aNWDQD582IJ-2" edge="1">
          <mxGeometry relative="1" as="geometry" />
        </mxCell>
        <mxCell id="3a17f1ce550125da-8" value="Encoder-Dense-1" style="whiteSpace=wrap;html=1;shadow=1;fontSize=10;fillColor=#f5f5f5;strokeColor=#666666;horizontal=0;fontFamily=Tahoma;" parent="1" vertex="1">
          <mxGeometry x="94.84000000000003" y="36.22893617021277" width="32" height="184.9685106382979" as="geometry" />
        </mxCell>
        <mxCell id="TpKz-f_f-aNWDQD582IJ-7" style="edgeStyle=orthogonalEdgeStyle;rounded=0;orthogonalLoop=1;jettySize=auto;html=1;exitX=1;exitY=0.5;exitDx=0;exitDy=0;entryX=0;entryY=0.5;entryDx=0;entryDy=0;horizontal=0;fontSize=10;fontFamily=Tahoma;" parent="1" source="TpKz-f_f-aNWDQD582IJ-3" target="3a17f1ce550125da-8" edge="1">
          <mxGeometry relative="1" as="geometry" />
        </mxCell>
        <mxCell id="TpKz-f_f-aNWDQD582IJ-8" style="edgeStyle=orthogonalEdgeStyle;rounded=0;orthogonalLoop=1;jettySize=auto;html=1;entryX=0;entryY=0.5;entryDx=0;entryDy=0;horizontal=0;fontSize=10;fontFamily=Tahoma;" parent="1" source="3a17f1ce550125da-8" target="TpKz-f_f-aNWDQD582IJ-1" edge="1">
          <mxGeometry relative="1" as="geometry" />
        </mxCell>
        <mxCell id="TpKz-f_f-aNWDQD582IJ-1" value="Encoder Dense - 2" style="whiteSpace=wrap;html=1;shadow=1;fontSize=10;fillColor=#f5f5f5;strokeColor=#666666;horizontal=0;fontFamily=Tahoma;" parent="1" vertex="1">
          <mxGeometry x="181.76999999999998" y="75.99744680851063" width="32" height="105.43851063829787" as="geometry" />
        </mxCell>
        <mxCell id="TpKz-f_f-aNWDQD582IJ-2" value="Decoder Dense-2" style="whiteSpace=wrap;html=1;shadow=1;fontSize=10;fillColor=#f5f5f5;strokeColor=#666666;horizontal=0;fontFamily=Tahoma;" parent="1" vertex="1">
          <mxGeometry x="371.45000000000005" y="39.0304255319149" width="32" height="179.36553191489364" as="geometry" />
        </mxCell>
        <mxCell id="TpKz-f_f-aNWDQD582IJ-12" style="edgeStyle=orthogonalEdgeStyle;rounded=0;orthogonalLoop=1;jettySize=auto;html=1;exitX=1;exitY=0.5;exitDx=0;exitDy=0;entryX=0;entryY=0.5;entryDx=0;entryDy=0;horizontal=0;fontSize=10;fontFamily=Tahoma;" parent="1" source="TpKz-f_f-aNWDQD582IJ-2" target="TpKz-f_f-aNWDQD582IJ-4" edge="1">
          <mxGeometry relative="1" as="geometry" />
        </mxCell>
        <mxCell id="TpKz-f_f-aNWDQD582IJ-3" value="Input" style="whiteSpace=wrap;html=1;shadow=1;fontSize=10;fillColor=#fff2cc;strokeColor=#d6b656;horizontal=0;fontFamily=Tahoma;" parent="1" vertex="1">
          <mxGeometry y="13.81" width="32" height="229.80891719745225" as="geometry" />
        </mxCell>
        <mxCell id="TpKz-f_f-aNWDQD582IJ-4" value="Output" style="whiteSpace=wrap;html=1;shadow=1;fontSize=10;fillColor=#fff2cc;strokeColor=#d6b656;horizontal=0;fontFamily=Tahoma;" parent="1" vertex="1">
          <mxGeometry x="450.48387096774195" y="13.81" width="32" height="229.80891719745225" as="geometry" />
        </mxCell>
        <mxCell id="TpKz-f_f-aNWDQD582IJ-14" style="edgeStyle=orthogonalEdgeStyle;rounded=0;orthogonalLoop=1;jettySize=auto;html=1;exitX=0.5;exitY=1;exitDx=0;exitDy=0;horizontal=0;fontSize=10;fontFamily=Tahoma;" parent="1" source="3a17f1ce550125da-1" target="TpKz-f_f-aNWDQD582IJ-13" edge="1">
          <mxGeometry relative="1" as="geometry">
            <Array as="points">
              <mxPoint x="268.5925925925926" y="293.5170938215103" />
            </Array>
          </mxGeometry>
        </mxCell>
        <mxCell id="TpKz-f_f-aNWDQD582IJ-21" style="edgeStyle=orthogonalEdgeStyle;rounded=0;orthogonalLoop=1;jettySize=auto;html=1;exitX=1;exitY=0.5;exitDx=0;exitDy=0;entryX=0;entryY=0.5;entryDx=0;entryDy=0;fontSize=10;fontFamily=Tahoma;" parent="1" source="TpKz-f_f-aNWDQD582IJ-18" target="TpKz-f_f-aNWDQD582IJ-17" edge="1">
          <mxGeometry relative="1" as="geometry" />
        </mxCell>
        <mxCell id="TpKz-f_f-aNWDQD582IJ-22" style="edgeStyle=orthogonalEdgeStyle;rounded=0;orthogonalLoop=1;jettySize=auto;html=1;exitX=1;exitY=0.5;exitDx=0;exitDy=0;entryX=0;entryY=0.5;entryDx=0;entryDy=0;fontSize=10;fontFamily=Tahoma;" parent="1" source="TpKz-f_f-aNWDQD582IJ-13" target="TpKz-f_f-aNWDQD582IJ-18" edge="1">
          <mxGeometry relative="1" as="geometry" />
        </mxCell>
        <mxCell id="TpKz-f_f-aNWDQD582IJ-17" value="Classifier Output" style="whiteSpace=wrap;html=1;shadow=1;fontSize=10;fillColor=#ffe6cc;strokeColor=#d79b00;horizontal=0;fontFamily=Tahoma;" parent="1" vertex="1">
          <mxGeometry x="450.48387096774195" y="256.2303821656051" width="32" height="74.26751592356689" as="geometry" />
        </mxCell>
        <mxCell id="TpKz-f_f-aNWDQD582IJ-13" value="Classifier Dense -1" style="whiteSpace=wrap;html=1;shadow=1;fontSize=10;fillColor=#f5f5f5;strokeColor=#666666;horizontal=0;fontFamily=Tahoma;" parent="1" vertex="1">
          <mxGeometry x="308.2258064516129" y="242.91828025477707" width="32" height="100.89171974522293" as="geometry" />
        </mxCell>
        <mxCell id="TpKz-f_f-aNWDQD582IJ-18" value="Classifier Dense-2" style="whiteSpace=wrap;html=1;shadow=1;fontSize=10;fillColor=#f5f5f5;strokeColor=#666666;horizontal=0;fontFamily=Tahoma;" parent="1" vertex="1">
          <mxGeometry x="379.3548387096773" y="256.2303821656051" width="32" height="74.26751592356689" as="geometry" />
        </mxCell>
        <mxCell id="vNdgeBDxmkW6QYGSxrCz-97" style="edgeStyle=orthogonalEdgeStyle;rounded=0;orthogonalLoop=1;jettySize=auto;html=1;exitX=1;exitY=0.5;exitDx=0;exitDy=0;entryX=0;entryY=0.5;entryDx=0;entryDy=0;" parent="1" source="TpKz-f_f-aNWDQD582IJ-61" target="TpKz-f_f-aNWDQD582IJ-65" edge="1">
          <mxGeometry relative="1" as="geometry" />
        </mxCell>
        <mxCell id="TpKz-f_f-aNWDQD582IJ-61" value="Classifier- Dense -1" style="whiteSpace=wrap;html=1;shadow=1;fontSize=10;fillColor=#f5f5f5;strokeColor=#666666;horizontal=0;fontFamily=Tahoma;" parent="1" vertex="1">
          <mxGeometry x="969.9958064516131" y="402.3082802547771" width="32" height="100.89171974522293" as="geometry" />
        </mxCell>
        <mxCell id="vNdgeBDxmkW6QYGSxrCz-27" style="edgeStyle=orthogonalEdgeStyle;rounded=0;orthogonalLoop=1;jettySize=auto;html=1;exitX=1;exitY=0.5;exitDx=0;exitDy=0;entryX=0;entryY=0.5;entryDx=0;entryDy=0;" parent="1" source="TpKz-f_f-aNWDQD582IJ-51" target="TpKz-f_f-aNWDQD582IJ-71" edge="1">
          <mxGeometry relative="1" as="geometry" />
        </mxCell>
        <mxCell id="TpKz-f_f-aNWDQD582IJ-51" value="Dense" style="whiteSpace=wrap;html=1;shadow=1;fontSize=10;fillColor=#f5f5f5;strokeColor=#666666;horizontal=0;fontFamily=Tahoma;" parent="1" vertex="1">
          <mxGeometry x="423" y="545" width="32" height="40" as="geometry" />
        </mxCell>
        <mxCell id="TpKz-f_f-aNWDQD582IJ-53" value="Concatatanetion" style="whiteSpace=wrap;html=1;shadow=1;fontSize=10;fillColor=#f5f5f5;strokeColor=#666666;horizontal=0;fontFamily=Tahoma;" parent="1" vertex="1">
          <mxGeometry x="552.77" y="581" width="32" height="250" as="geometry" />
        </mxCell>
        <mxCell id="vNdgeBDxmkW6QYGSxrCz-17" style="edgeStyle=orthogonalEdgeStyle;rounded=0;orthogonalLoop=1;jettySize=auto;html=1;exitX=1;exitY=0.5;exitDx=0;exitDy=0;entryX=0;entryY=0.5;entryDx=0;entryDy=0;" parent="1" source="TpKz-f_f-aNWDQD582IJ-58" target="TpKz-f_f-aNWDQD582IJ-51" edge="1">
          <mxGeometry relative="1" as="geometry" />
        </mxCell>
        <mxCell id="TpKz-f_f-aNWDQD582IJ-58" value="Cat-1" style="whiteSpace=wrap;html=1;shadow=1;fontSize=10;fillColor=#fff2cc;strokeColor=#d6b656;horizontal=0;fontFamily=Tahoma;" parent="1" vertex="1">
          <mxGeometry x="364" y="540" width="32" height="50" as="geometry" />
        </mxCell>
        <mxCell id="TpKz-f_f-aNWDQD582IJ-71" value="Dense" style="whiteSpace=wrap;html=1;shadow=1;fontSize=10;fillColor=#f5f5f5;strokeColor=#666666;horizontal=0;fontFamily=Tahoma;" parent="1" vertex="1">
          <mxGeometry x="479" y="550" width="32" height="30" as="geometry" />
        </mxCell>
        <mxCell id="TpKz-f_f-aNWDQD582IJ-72" value="" style="edgeStyle=orthogonalEdgeStyle;rounded=0;orthogonalLoop=1;jettySize=auto;html=1;fontFamily=Verdana;fontSize=10;" parent="1" edge="1">
          <mxGeometry relative="1" as="geometry">
            <Array as="points">
              <mxPoint x="521" y="565" />
              <mxPoint x="521" y="706" />
            </Array>
            <mxPoint x="512" y="565.0588235294117" as="sourcePoint" />
            <mxPoint x="553.7700000000002" y="706.0000000000002" as="targetPoint" />
          </mxGeometry>
        </mxCell>
        <mxCell id="vNdgeBDxmkW6QYGSxrCz-11" style="edgeStyle=orthogonalEdgeStyle;rounded=0;orthogonalLoop=1;jettySize=auto;html=1;exitX=1;exitY=0.5;exitDx=0;exitDy=0;entryX=0;entryY=0.5;entryDx=0;entryDy=0;" parent="1" edge="1">
          <mxGeometry relative="1" as="geometry">
            <mxPoint x="512" y="628" as="sourcePoint" />
            <mxPoint x="553.7700000000002" y="705.9999999999998" as="targetPoint" />
            <Array as="points">
              <mxPoint x="521" y="628" />
              <mxPoint x="521" y="706" />
            </Array>
          </mxGeometry>
        </mxCell>
        <mxCell id="vNdgeBDxmkW6QYGSxrCz-28" value="&lt;font style=&quot;font-size: 18px&quot;&gt;.......&lt;/font&gt;" style="text;html=1;strokeColor=none;fillColor=none;align=center;verticalAlign=middle;whiteSpace=wrap;rounded=0;rotation=90;" parent="1" vertex="1">
          <mxGeometry x="353.75" y="677.75" width="52.5" height="30" as="geometry" />
        </mxCell>
        <mxCell id="vNdgeBDxmkW6QYGSxrCz-38" value="" style="group" parent="1" vertex="1" connectable="0">
          <mxGeometry x="364" y="603.79" width="147" height="50" as="geometry" />
        </mxCell>
        <mxCell id="vNdgeBDxmkW6QYGSxrCz-9" value="Dense" style="whiteSpace=wrap;html=1;shadow=1;fontSize=10;fillColor=#f5f5f5;strokeColor=#666666;horizontal=0;fontFamily=Tahoma;" parent="vNdgeBDxmkW6QYGSxrCz-38" vertex="1">
          <mxGeometry x="61" y="5" width="32" height="40" as="geometry" />
        </mxCell>
        <mxCell id="vNdgeBDxmkW6QYGSxrCz-10" value="Dense" style="whiteSpace=wrap;html=1;shadow=1;fontSize=10;fillColor=#f5f5f5;strokeColor=#666666;horizontal=0;fontFamily=Tahoma;" parent="vNdgeBDxmkW6QYGSxrCz-38" vertex="1">
          <mxGeometry x="115" y="9.210000000000036" width="32" height="30" as="geometry" />
        </mxCell>
        <mxCell id="vNdgeBDxmkW6QYGSxrCz-26" style="edgeStyle=orthogonalEdgeStyle;rounded=0;orthogonalLoop=1;jettySize=auto;html=1;exitX=1;exitY=0.5;exitDx=0;exitDy=0;entryX=0;entryY=0.5;entryDx=0;entryDy=0;" parent="vNdgeBDxmkW6QYGSxrCz-38" source="vNdgeBDxmkW6QYGSxrCz-9" target="vNdgeBDxmkW6QYGSxrCz-10" edge="1">
          <mxGeometry relative="1" as="geometry" />
        </mxCell>
        <mxCell id="vNdgeBDxmkW6QYGSxrCz-25" style="edgeStyle=orthogonalEdgeStyle;rounded=0;orthogonalLoop=1;jettySize=auto;html=1;exitX=1;exitY=0.5;exitDx=0;exitDy=0;entryX=0;entryY=0.5;entryDx=0;entryDy=0;" parent="vNdgeBDxmkW6QYGSxrCz-38" source="vNdgeBDxmkW6QYGSxrCz-22" target="vNdgeBDxmkW6QYGSxrCz-9" edge="1">
          <mxGeometry relative="1" as="geometry" />
        </mxCell>
        <mxCell id="vNdgeBDxmkW6QYGSxrCz-22" value="Cat-2" style="whiteSpace=wrap;html=1;shadow=1;fontSize=10;fillColor=#fff2cc;strokeColor=#d6b656;horizontal=0;fontFamily=Tahoma;" parent="vNdgeBDxmkW6QYGSxrCz-38" vertex="1">
          <mxGeometry width="32" height="50" as="geometry" />
        </mxCell>
        <mxCell id="vNdgeBDxmkW6QYGSxrCz-39" value="" style="group" parent="1" vertex="1" connectable="0">
          <mxGeometry x="364" y="720" width="147" height="50" as="geometry" />
        </mxCell>
        <mxCell id="vNdgeBDxmkW6QYGSxrCz-40" value="Dense" style="whiteSpace=wrap;html=1;shadow=1;fontSize=10;fillColor=#f5f5f5;strokeColor=#666666;horizontal=0;fontFamily=Tahoma;" parent="vNdgeBDxmkW6QYGSxrCz-39" vertex="1">
          <mxGeometry x="61" y="5" width="32" height="40" as="geometry" />
        </mxCell>
        <mxCell id="vNdgeBDxmkW6QYGSxrCz-41" value="Dense" style="whiteSpace=wrap;html=1;shadow=1;fontSize=10;fillColor=#f5f5f5;strokeColor=#666666;horizontal=0;fontFamily=Tahoma;" parent="vNdgeBDxmkW6QYGSxrCz-39" vertex="1">
          <mxGeometry x="115" y="9.210000000000036" width="32" height="30" as="geometry" />
        </mxCell>
        <mxCell id="vNdgeBDxmkW6QYGSxrCz-42" style="edgeStyle=orthogonalEdgeStyle;rounded=0;orthogonalLoop=1;jettySize=auto;html=1;exitX=1;exitY=0.5;exitDx=0;exitDy=0;entryX=0;entryY=0.5;entryDx=0;entryDy=0;" parent="vNdgeBDxmkW6QYGSxrCz-39" source="vNdgeBDxmkW6QYGSxrCz-40" target="vNdgeBDxmkW6QYGSxrCz-41" edge="1">
          <mxGeometry relative="1" as="geometry" />
        </mxCell>
        <mxCell id="vNdgeBDxmkW6QYGSxrCz-43" style="edgeStyle=orthogonalEdgeStyle;rounded=0;orthogonalLoop=1;jettySize=auto;html=1;exitX=1;exitY=0.5;exitDx=0;exitDy=0;entryX=0;entryY=0.5;entryDx=0;entryDy=0;" parent="vNdgeBDxmkW6QYGSxrCz-39" source="vNdgeBDxmkW6QYGSxrCz-44" target="vNdgeBDxmkW6QYGSxrCz-40" edge="1">
          <mxGeometry relative="1" as="geometry" />
        </mxCell>
        <mxCell id="vNdgeBDxmkW6QYGSxrCz-44" value="Cat-N" style="whiteSpace=wrap;html=1;shadow=1;fontSize=10;fillColor=#fff2cc;strokeColor=#d6b656;horizontal=0;fontFamily=Tahoma;" parent="vNdgeBDxmkW6QYGSxrCz-39" vertex="1">
          <mxGeometry width="32" height="50" as="geometry" />
        </mxCell>
        <mxCell id="vNdgeBDxmkW6QYGSxrCz-45" style="edgeStyle=orthogonalEdgeStyle;rounded=0;orthogonalLoop=1;jettySize=auto;html=1;entryX=0;entryY=0.5;entryDx=0;entryDy=0;" parent="1" edge="1">
          <mxGeometry relative="1" as="geometry">
            <mxPoint x="512" y="744.2352941176473" as="sourcePoint" />
            <mxPoint x="553.7700000000002" y="705.9999999999998" as="targetPoint" />
            <Array as="points">
              <mxPoint x="521" y="744" />
              <mxPoint x="521" y="706" />
            </Array>
          </mxGeometry>
        </mxCell>
        <mxCell id="vNdgeBDxmkW6QYGSxrCz-54" value="Decoder-Dense-1" style="whiteSpace=wrap;html=1;shadow=1;fontSize=10;fillColor=#f5f5f5;strokeColor=#666666;horizontal=0;fontFamily=Tahoma;" parent="1" vertex="1">
          <mxGeometry x="820" y="651.2374468085106" width="32" height="105.43851063829787" as="geometry" />
        </mxCell>
        <mxCell id="vNdgeBDxmkW6QYGSxrCz-70" style="edgeStyle=orthogonalEdgeStyle;rounded=0;orthogonalLoop=1;jettySize=auto;html=1;exitX=1;exitY=0.5;exitDx=0;exitDy=0;entryX=0;entryY=0.5;entryDx=0;entryDy=0;" parent="1" source="vNdgeBDxmkW6QYGSxrCz-56" target="vNdgeBDxmkW6QYGSxrCz-67" edge="1">
          <mxGeometry relative="1" as="geometry" />
        </mxCell>
        <mxCell id="vNdgeBDxmkW6QYGSxrCz-87" style="edgeStyle=orthogonalEdgeStyle;rounded=0;orthogonalLoop=1;jettySize=auto;html=1;exitX=1;exitY=0.5;exitDx=0;exitDy=0;" parent="1" edge="1">
          <mxGeometry relative="1" as="geometry">
            <mxPoint x="875" y="704.0031914893616" as="sourcePoint" />
            <mxPoint x="981" y="753" as="targetPoint" />
            <Array as="points">
              <mxPoint x="951" y="704" />
              <mxPoint x="951" y="753" />
            </Array>
          </mxGeometry>
        </mxCell>
        <mxCell id="vNdgeBDxmkW6QYGSxrCz-92" style="edgeStyle=orthogonalEdgeStyle;rounded=0;orthogonalLoop=1;jettySize=auto;html=1;exitX=1;exitY=0.5;exitDx=0;exitDy=0;entryX=0;entryY=0.5;entryDx=0;entryDy=0;" parent="1" edge="1">
          <mxGeometry relative="1" as="geometry">
            <mxPoint x="923" y="704.0031914893616" as="sourcePoint" />
            <mxPoint x="1092.9999999999995" y="901.6800000000001" as="targetPoint" />
            <Array as="points">
              <mxPoint x="951" y="704" />
              <mxPoint x="951" y="902" />
            </Array>
          </mxGeometry>
        </mxCell>
        <mxCell id="vNdgeBDxmkW6QYGSxrCz-93" style="edgeStyle=orthogonalEdgeStyle;rounded=0;orthogonalLoop=1;jettySize=auto;html=1;" parent="1" source="vNdgeBDxmkW6QYGSxrCz-56" edge="1">
          <mxGeometry relative="1" as="geometry">
            <mxPoint x="980" y="630" as="targetPoint" />
          </mxGeometry>
        </mxCell>
        <mxCell id="vNdgeBDxmkW6QYGSxrCz-94" style="edgeStyle=orthogonalEdgeStyle;rounded=0;orthogonalLoop=1;jettySize=auto;html=1;exitX=1;exitY=0.5;exitDx=0;exitDy=0;entryX=0;entryY=0.5;entryDx=0;entryDy=0;" parent="1" edge="1">
          <mxGeometry relative="1" as="geometry">
            <mxPoint x="923" y="704.0031914893616" as="sourcePoint" />
            <mxPoint x="1091.7499999999995" y="821.8199999999999" as="targetPoint" />
            <Array as="points">
              <mxPoint x="951" y="704" />
              <mxPoint x="951" y="822" />
            </Array>
          </mxGeometry>
        </mxCell>
        <mxCell id="vNdgeBDxmkW6QYGSxrCz-56" value="Decoder-Dense-2" style="whiteSpace=wrap;html=1;shadow=1;fontSize=10;fillColor=#f5f5f5;strokeColor=#666666;horizontal=0;fontFamily=Tahoma;" parent="1" vertex="1">
          <mxGeometry x="890" y="611.5189361702128" width="32" height="184.9685106382979" as="geometry" />
        </mxCell>
        <mxCell id="TpKz-f_f-aNWDQD582IJ-25" value="Latent" style="whiteSpace=wrap;html=1;shadow=1;fontSize=10;fillColor=#f8cecc;strokeColor=#b85450;strokeWidth=2;dashed=1;horizontal=0;fontFamily=Verdana;" parent="1" vertex="1">
          <mxGeometry x="1597.741935483871" y="119.57537154989386" width="32" height="44.58598726114649" as="geometry" />
        </mxCell>
        <mxCell id="TpKz-f_f-aNWDQD582IJ-26" value="Decoder Dense-1" style="whiteSpace=wrap;html=1;shadow=1;fontSize=10;fillColor=#f5f5f5;strokeColor=#666666;horizontal=0;fontFamily=Verdana;" parent="1" vertex="1">
          <mxGeometry x="1651.94" y="77" width="32" height="130" as="geometry" />
        </mxCell>
        <mxCell id="TpKz-f_f-aNWDQD582IJ-27" style="edgeStyle=orthogonalEdgeStyle;rounded=0;orthogonalLoop=1;jettySize=auto;html=1;exitX=1;exitY=0.5;exitDx=0;exitDy=0;entryX=0;entryY=0.5;entryDx=0;entryDy=0;horizontal=0;fontSize=10;fontFamily=Verdana;" parent="1" source="TpKz-f_f-aNWDQD582IJ-25" target="TpKz-f_f-aNWDQD582IJ-26" edge="1">
          <mxGeometry relative="1" as="geometry" />
        </mxCell>
        <mxCell id="TpKz-f_f-aNWDQD582IJ-28" value="Encoder-Dense-1" style="whiteSpace=wrap;html=1;shadow=1;fontSize=10;fillColor=#f5f5f5;strokeColor=#666666;horizontal=0;fontFamily=Verdana;" parent="1" vertex="1">
          <mxGeometry x="1442.9032258064517" y="43.77919320594479" width="32" height="196.17834394904457" as="geometry" />
        </mxCell>
        <mxCell id="TpKz-f_f-aNWDQD582IJ-29" style="edgeStyle=orthogonalEdgeStyle;rounded=0;orthogonalLoop=1;jettySize=auto;html=1;exitX=1;exitY=0.5;exitDx=0;exitDy=0;entryX=0;entryY=0.5;entryDx=0;entryDy=0;horizontal=0;fontSize=10;fontFamily=Verdana;" parent="1" source="TpKz-f_f-aNWDQD582IJ-30" target="TpKz-f_f-aNWDQD582IJ-25" edge="1">
          <mxGeometry relative="1" as="geometry" />
        </mxCell>
        <mxCell id="TpKz-f_f-aNWDQD582IJ-30" value="Encoder Dense - 2" style="whiteSpace=wrap;html=1;shadow=1;fontSize=10;fillColor=#f5f5f5;strokeColor=#666666;horizontal=0;fontFamily=Verdana;" parent="1" vertex="1">
          <mxGeometry x="1528.0645161290322" y="79.44798301486199" width="32" height="124.84076433121018" as="geometry" />
        </mxCell>
        <mxCell id="TpKz-f_f-aNWDQD582IJ-31" style="edgeStyle=orthogonalEdgeStyle;rounded=0;orthogonalLoop=1;jettySize=auto;html=1;entryX=0;entryY=0.5;entryDx=0;entryDy=0;horizontal=0;fontSize=10;fontFamily=Verdana;" parent="1" source="TpKz-f_f-aNWDQD582IJ-28" target="TpKz-f_f-aNWDQD582IJ-30" edge="1">
          <mxGeometry relative="1" as="geometry" />
        </mxCell>
        <mxCell id="TpKz-f_f-aNWDQD582IJ-32" value="Decoder Dense-2" style="whiteSpace=wrap;html=1;shadow=1;fontSize=10;fillColor=#f5f5f5;strokeColor=#666666;horizontal=0;fontFamily=Verdana;" parent="1" vertex="1">
          <mxGeometry x="1713.8709677419354" y="46.751592356687894" width="32" height="190.23354564755837" as="geometry" />
        </mxCell>
        <mxCell id="TpKz-f_f-aNWDQD582IJ-33" style="edgeStyle=orthogonalEdgeStyle;rounded=0;orthogonalLoop=1;jettySize=auto;html=1;exitX=1;exitY=0.5;exitDx=0;exitDy=0;entryX=0;entryY=0.5;entryDx=0;entryDy=0;horizontal=0;fontSize=10;fontFamily=Verdana;" parent="1" source="TpKz-f_f-aNWDQD582IJ-26" target="TpKz-f_f-aNWDQD582IJ-32" edge="1">
          <mxGeometry relative="1" as="geometry" />
        </mxCell>
        <mxCell id="TpKz-f_f-aNWDQD582IJ-34" style="edgeStyle=orthogonalEdgeStyle;rounded=0;orthogonalLoop=1;jettySize=auto;html=1;exitX=1;exitY=0.5;exitDx=0;exitDy=0;entryX=0;entryY=0.5;entryDx=0;entryDy=0;horizontal=0;fontSize=10;fontFamily=Verdana;" parent="1" source="TpKz-f_f-aNWDQD582IJ-35" target="TpKz-f_f-aNWDQD582IJ-28" edge="1">
          <mxGeometry relative="1" as="geometry" />
        </mxCell>
        <mxCell id="TpKz-f_f-aNWDQD582IJ-35" value="Input" style="whiteSpace=wrap;html=1;shadow=1;fontSize=10;fillColor=#fff2cc;strokeColor=#d6b656;horizontal=0;fontFamily=Verdana;" parent="1" vertex="1">
          <mxGeometry x="1350" y="20" width="32" height="243.73673036093413" as="geometry" />
        </mxCell>
        <mxCell id="TpKz-f_f-aNWDQD582IJ-36" value="Numeric&amp;nbsp; Outputs" style="whiteSpace=wrap;html=1;shadow=1;fontSize=10;fillColor=#fff2cc;strokeColor=#d6b656;horizontal=0;fontFamily=Verdana;" parent="1" vertex="1">
          <mxGeometry x="1791.2888888888888" y="24.485125858123567" width="32" height="128.14645308924483" as="geometry" />
        </mxCell>
        <mxCell id="TpKz-f_f-aNWDQD582IJ-37" style="edgeStyle=orthogonalEdgeStyle;rounded=0;orthogonalLoop=1;jettySize=auto;html=1;exitX=1;exitY=0.5;exitDx=0;exitDy=0;entryX=0;entryY=0.5;entryDx=0;entryDy=0;horizontal=0;fontSize=10;fontFamily=Verdana;" parent="1" source="TpKz-f_f-aNWDQD582IJ-32" target="TpKz-f_f-aNWDQD582IJ-36" edge="1">
          <mxGeometry relative="1" as="geometry" />
        </mxCell>
        <mxCell id="TpKz-f_f-aNWDQD582IJ-38" value="Classifier Dense -1" style="whiteSpace=wrap;html=1;shadow=1;fontSize=10;fillColor=#f5f5f5;strokeColor=#666666;horizontal=0;fontFamily=Verdana;" parent="1" vertex="1">
          <mxGeometry x="1651.9354838709678" y="262.9936305732483" width="32" height="107.00636942675156" as="geometry" />
        </mxCell>
        <mxCell id="TpKz-f_f-aNWDQD582IJ-39" style="edgeStyle=orthogonalEdgeStyle;rounded=0;orthogonalLoop=1;jettySize=auto;html=1;exitX=0.5;exitY=1;exitDx=0;exitDy=0;horizontal=0;fontSize=10;fontFamily=Verdana;" parent="1" source="TpKz-f_f-aNWDQD582IJ-25" target="TpKz-f_f-aNWDQD582IJ-38" edge="1">
          <mxGeometry relative="1" as="geometry">
            <Array as="points">
              <mxPoint x="1613.111111111111" y="316.6590389016017" />
            </Array>
          </mxGeometry>
        </mxCell>
        <mxCell id="TpKz-f_f-aNWDQD582IJ-40" value="Classifier Output" style="whiteSpace=wrap;html=1;shadow=1;fontSize=10;fillColor=#ffe6cc;strokeColor=#d79b00;horizontal=0;fontFamily=Verdana;" parent="1" vertex="1">
          <mxGeometry x="1791.2903225806451" y="277.1125265392781" width="32" height="78.76857749469212" as="geometry" />
        </mxCell>
        <mxCell id="TpKz-f_f-aNWDQD582IJ-41" style="edgeStyle=orthogonalEdgeStyle;rounded=0;orthogonalLoop=1;jettySize=auto;html=1;exitX=1;exitY=0.5;exitDx=0;exitDy=0;entryX=0;entryY=0.5;entryDx=0;entryDy=0;fontSize=10;fontFamily=Verdana;" parent="1" source="TpKz-f_f-aNWDQD582IJ-42" target="TpKz-f_f-aNWDQD582IJ-40" edge="1">
          <mxGeometry relative="1" as="geometry" />
        </mxCell>
        <mxCell id="TpKz-f_f-aNWDQD582IJ-42" value="Classifier Dense-2" style="whiteSpace=wrap;html=1;shadow=1;fontSize=10;fillColor=#f5f5f5;strokeColor=#666666;horizontal=0;fontFamily=Verdana;" parent="1" vertex="1">
          <mxGeometry x="1721.6129032258063" y="277.1125265392781" width="32" height="78.76857749469212" as="geometry" />
        </mxCell>
        <mxCell id="TpKz-f_f-aNWDQD582IJ-43" style="edgeStyle=orthogonalEdgeStyle;rounded=0;orthogonalLoop=1;jettySize=auto;html=1;exitX=1;exitY=0.5;exitDx=0;exitDy=0;entryX=0;entryY=0.5;entryDx=0;entryDy=0;fontSize=10;fontFamily=Verdana;" parent="1" source="TpKz-f_f-aNWDQD582IJ-38" target="TpKz-f_f-aNWDQD582IJ-42" edge="1">
          <mxGeometry relative="1" as="geometry" />
        </mxCell>
        <mxCell id="TpKz-f_f-aNWDQD582IJ-44" value="Categorical Outputs" style="whiteSpace=wrap;html=1;shadow=1;fontSize=10;fillColor=#fff2cc;strokeColor=#d6b656;horizontal=0;fontFamily=Verdana;" parent="1" vertex="1">
          <mxGeometry x="1791.2888888888888" y="160.9610983981693" width="32" height="108.92448512585811" as="geometry" />
        </mxCell>
        <mxCell id="TpKz-f_f-aNWDQD582IJ-45" style="edgeStyle=orthogonalEdgeStyle;rounded=0;orthogonalLoop=1;jettySize=auto;html=1;exitX=1;exitY=0.5;exitDx=0;exitDy=0;entryX=0;entryY=0.5;entryDx=0;entryDy=0;horizontal=0;fontSize=10;fontFamily=Verdana;" parent="1" source="TpKz-f_f-aNWDQD582IJ-32" target="TpKz-f_f-aNWDQD582IJ-44" edge="1">
          <mxGeometry relative="1" as="geometry">
            <mxPoint x="1761.4695340501792" y="148.27568783492927" as="sourcePoint" />
            <mxPoint x="1800.1777777777777" y="94.96567505720823" as="targetPoint" />
          </mxGeometry>
        </mxCell>
        <mxCell id="TpKz-f_f-aNWDQD582IJ-65" value="Classifier- Dense-2" style="whiteSpace=wrap;html=1;shadow=1;fontSize=10;fillColor=#f5f5f5;strokeColor=#666666;horizontal=0;fontFamily=Tahoma;" parent="1" vertex="1">
          <mxGeometry x="1034.7548387096776" y="416.0003821656051" width="32" height="74.26751592356689" as="geometry" />
        </mxCell>
        <mxCell id="TpKz-f_f-aNWDQD582IJ-63" value="Classifier Output" style="whiteSpace=wrap;html=1;shadow=1;fontSize=10;fillColor=#ffe6cc;strokeColor=#d79b00;horizontal=0;fontFamily=Tahoma;" parent="1" vertex="1">
          <mxGeometry x="1090.003870967742" y="415.0003821656051" width="32" height="74.26751592356689" as="geometry" />
        </mxCell>
        <mxCell id="TpKz-f_f-aNWDQD582IJ-64" style="edgeStyle=orthogonalEdgeStyle;rounded=0;orthogonalLoop=1;jettySize=auto;html=1;exitX=1;exitY=0.5;exitDx=0;exitDy=0;entryX=0;entryY=0.5;entryDx=0;entryDy=0;fontSize=10;fontFamily=Tahoma;" parent="1" source="TpKz-f_f-aNWDQD582IJ-65" target="TpKz-f_f-aNWDQD582IJ-63" edge="1">
          <mxGeometry relative="1" as="geometry" />
        </mxCell>
        <mxCell id="vNdgeBDxmkW6QYGSxrCz-73" value="" style="group" parent="1" vertex="1" connectable="0">
          <mxGeometry x="980" y="540" width="142" height="50" as="geometry" />
        </mxCell>
        <mxCell id="vNdgeBDxmkW6QYGSxrCz-67" value="Dense" style="whiteSpace=wrap;html=1;shadow=1;fontSize=10;fillColor=#f5f5f5;strokeColor=#666666;horizontal=0;fontFamily=Tahoma;" parent="vNdgeBDxmkW6QYGSxrCz-73" vertex="1">
          <mxGeometry y="10" width="32" height="30" as="geometry" />
        </mxCell>
        <mxCell id="vNdgeBDxmkW6QYGSxrCz-68" value="Dense" style="whiteSpace=wrap;html=1;shadow=1;fontSize=10;fillColor=#f5f5f5;strokeColor=#666666;horizontal=0;fontFamily=Tahoma;" parent="vNdgeBDxmkW6QYGSxrCz-73" vertex="1">
          <mxGeometry x="55" y="5" width="32" height="40" as="geometry" />
        </mxCell>
        <mxCell id="vNdgeBDxmkW6QYGSxrCz-71" style="edgeStyle=orthogonalEdgeStyle;rounded=0;orthogonalLoop=1;jettySize=auto;html=1;exitX=1;exitY=0.5;exitDx=0;exitDy=0;entryX=0;entryY=0.5;entryDx=0;entryDy=0;" parent="vNdgeBDxmkW6QYGSxrCz-73" source="vNdgeBDxmkW6QYGSxrCz-67" target="vNdgeBDxmkW6QYGSxrCz-68" edge="1">
          <mxGeometry relative="1" as="geometry" />
        </mxCell>
        <mxCell id="vNdgeBDxmkW6QYGSxrCz-69" value="Cat-1" style="whiteSpace=wrap;html=1;shadow=1;fontSize=10;fillColor=#fff2cc;strokeColor=#d6b656;horizontal=0;fontFamily=Tahoma;" parent="vNdgeBDxmkW6QYGSxrCz-73" vertex="1">
          <mxGeometry x="110" width="32" height="50" as="geometry" />
        </mxCell>
        <mxCell id="vNdgeBDxmkW6QYGSxrCz-72" style="edgeStyle=orthogonalEdgeStyle;rounded=0;orthogonalLoop=1;jettySize=auto;html=1;exitX=1;exitY=0.5;exitDx=0;exitDy=0;entryX=0;entryY=0.5;entryDx=0;entryDy=0;" parent="vNdgeBDxmkW6QYGSxrCz-73" source="vNdgeBDxmkW6QYGSxrCz-68" target="vNdgeBDxmkW6QYGSxrCz-69" edge="1">
          <mxGeometry relative="1" as="geometry" />
        </mxCell>
        <mxCell id="vNdgeBDxmkW6QYGSxrCz-74" value="" style="group" parent="1" vertex="1" connectable="0">
          <mxGeometry x="980" y="603.79" width="142" height="50" as="geometry" />
        </mxCell>
        <mxCell id="vNdgeBDxmkW6QYGSxrCz-75" value="Dense" style="whiteSpace=wrap;html=1;shadow=1;fontSize=10;fillColor=#f5f5f5;strokeColor=#666666;horizontal=0;fontFamily=Tahoma;" parent="vNdgeBDxmkW6QYGSxrCz-74" vertex="1">
          <mxGeometry y="10" width="32" height="30" as="geometry" />
        </mxCell>
        <mxCell id="vNdgeBDxmkW6QYGSxrCz-76" value="Dense" style="whiteSpace=wrap;html=1;shadow=1;fontSize=10;fillColor=#f5f5f5;strokeColor=#666666;horizontal=0;fontFamily=Tahoma;" parent="vNdgeBDxmkW6QYGSxrCz-74" vertex="1">
          <mxGeometry x="55" y="5" width="32" height="40" as="geometry" />
        </mxCell>
        <mxCell id="vNdgeBDxmkW6QYGSxrCz-77" style="edgeStyle=orthogonalEdgeStyle;rounded=0;orthogonalLoop=1;jettySize=auto;html=1;exitX=1;exitY=0.5;exitDx=0;exitDy=0;entryX=0;entryY=0.5;entryDx=0;entryDy=0;" parent="vNdgeBDxmkW6QYGSxrCz-74" source="vNdgeBDxmkW6QYGSxrCz-75" target="vNdgeBDxmkW6QYGSxrCz-76" edge="1">
          <mxGeometry relative="1" as="geometry" />
        </mxCell>
        <mxCell id="vNdgeBDxmkW6QYGSxrCz-78" value="Cat-2" style="whiteSpace=wrap;html=1;shadow=1;fontSize=10;fillColor=#fff2cc;strokeColor=#d6b656;horizontal=0;fontFamily=Tahoma;" parent="vNdgeBDxmkW6QYGSxrCz-74" vertex="1">
          <mxGeometry x="110" width="32" height="50" as="geometry" />
        </mxCell>
        <mxCell id="vNdgeBDxmkW6QYGSxrCz-79" style="edgeStyle=orthogonalEdgeStyle;rounded=0;orthogonalLoop=1;jettySize=auto;html=1;exitX=1;exitY=0.5;exitDx=0;exitDy=0;entryX=0;entryY=0.5;entryDx=0;entryDy=0;" parent="vNdgeBDxmkW6QYGSxrCz-74" source="vNdgeBDxmkW6QYGSxrCz-76" target="vNdgeBDxmkW6QYGSxrCz-78" edge="1">
          <mxGeometry relative="1" as="geometry" />
        </mxCell>
        <mxCell id="vNdgeBDxmkW6QYGSxrCz-81" value="" style="group" parent="1" vertex="1" connectable="0">
          <mxGeometry x="979.75" y="727" width="142" height="50" as="geometry" />
        </mxCell>
        <mxCell id="vNdgeBDxmkW6QYGSxrCz-82" value="Dense" style="whiteSpace=wrap;html=1;shadow=1;fontSize=10;fillColor=#f5f5f5;strokeColor=#666666;horizontal=0;fontFamily=Tahoma;" parent="vNdgeBDxmkW6QYGSxrCz-81" vertex="1">
          <mxGeometry y="10" width="32" height="30" as="geometry" />
        </mxCell>
        <mxCell id="vNdgeBDxmkW6QYGSxrCz-83" value="Dense" style="whiteSpace=wrap;html=1;shadow=1;fontSize=10;fillColor=#f5f5f5;strokeColor=#666666;horizontal=0;fontFamily=Tahoma;" parent="vNdgeBDxmkW6QYGSxrCz-81" vertex="1">
          <mxGeometry x="55" y="5" width="32" height="40" as="geometry" />
        </mxCell>
        <mxCell id="vNdgeBDxmkW6QYGSxrCz-84" style="edgeStyle=orthogonalEdgeStyle;rounded=0;orthogonalLoop=1;jettySize=auto;html=1;exitX=1;exitY=0.5;exitDx=0;exitDy=0;entryX=0;entryY=0.5;entryDx=0;entryDy=0;" parent="vNdgeBDxmkW6QYGSxrCz-81" source="vNdgeBDxmkW6QYGSxrCz-82" target="vNdgeBDxmkW6QYGSxrCz-83" edge="1">
          <mxGeometry relative="1" as="geometry" />
        </mxCell>
        <mxCell id="vNdgeBDxmkW6QYGSxrCz-85" value="Cat-N" style="whiteSpace=wrap;html=1;shadow=1;fontSize=10;fillColor=#fff2cc;strokeColor=#d6b656;horizontal=0;fontFamily=Tahoma;" parent="vNdgeBDxmkW6QYGSxrCz-81" vertex="1">
          <mxGeometry x="110" width="32" height="50" as="geometry" />
        </mxCell>
        <mxCell id="vNdgeBDxmkW6QYGSxrCz-86" style="edgeStyle=orthogonalEdgeStyle;rounded=0;orthogonalLoop=1;jettySize=auto;html=1;exitX=1;exitY=0.5;exitDx=0;exitDy=0;entryX=0;entryY=0.5;entryDx=0;entryDy=0;" parent="vNdgeBDxmkW6QYGSxrCz-81" source="vNdgeBDxmkW6QYGSxrCz-83" target="vNdgeBDxmkW6QYGSxrCz-85" edge="1">
          <mxGeometry relative="1" as="geometry" />
        </mxCell>
        <mxCell id="vNdgeBDxmkW6QYGSxrCz-88" value="&lt;font style=&quot;font-size: 18px&quot;&gt;.......&lt;/font&gt;" style="text;html=1;strokeColor=none;fillColor=none;align=center;verticalAlign=middle;whiteSpace=wrap;rounded=0;rotation=90;" parent="1" vertex="1">
          <mxGeometry x="1080" y="677.75" width="52.5" height="30" as="geometry" />
        </mxCell>
        <mxCell id="vNdgeBDxmkW6QYGSxrCz-89" value="Continous" style="whiteSpace=wrap;html=1;shadow=1;fontSize=10;fillColor=#fff2cc;strokeColor=#d6b656;horizontal=0;fontFamily=Tahoma;" parent="1" vertex="1">
          <mxGeometry x="1090.75" y="790" width="32" height="63.64" as="geometry" />
        </mxCell>
        <mxCell id="vNdgeBDxmkW6QYGSxrCz-90" value="Binary" style="whiteSpace=wrap;html=1;shadow=1;fontSize=10;fillColor=#fff2cc;strokeColor=#d6b656;horizontal=0;fontFamily=Tahoma;" parent="1" vertex="1">
          <mxGeometry x="1092" y="869.86" width="32" height="63.64" as="geometry" />
        </mxCell>
        <mxCell id="bod1k1bSm5_R8_PrJ0vr-1" style="edgeStyle=orthogonalEdgeStyle;rounded=0;orthogonalLoop=1;jettySize=auto;html=1;exitX=1;exitY=0.5;exitDx=0;exitDy=0;entryX=0;entryY=0.5;entryDx=0;entryDy=0;" edge="1" parent="1">
          <mxGeometry relative="1" as="geometry">
            <mxPoint x="613.25" y="290.6299999999999" as="sourcePoint" />
            <mxPoint x="770.0200000000002" y="174.80999999999972" as="targetPoint" />
            <Array as="points">
              <mxPoint x="737.25" y="290.80999999999995" />
              <mxPoint x="737.25" y="174.80999999999995" />
            </Array>
          </mxGeometry>
        </mxCell>
        <mxCell id="bod1k1bSm5_R8_PrJ0vr-2" value="Continous" style="whiteSpace=wrap;html=1;shadow=1;fontSize=10;fillColor=#FFFFFF;strokeColor=#d6b656;horizontal=0;fontFamily=Tahoma;" vertex="1" parent="1">
          <mxGeometry x="580.25" y="258.80999999999995" width="32" height="63.64" as="geometry" />
        </mxCell>
        <mxCell id="bod1k1bSm5_R8_PrJ0vr-3" style="edgeStyle=orthogonalEdgeStyle;rounded=0;orthogonalLoop=1;jettySize=auto;html=1;" edge="1" parent="1">
          <mxGeometry relative="1" as="geometry">
            <mxPoint x="613.25" y="370.45705882352945" as="sourcePoint" />
            <mxPoint x="770.0200000000002" y="174.81000000000017" as="targetPoint" />
            <Array as="points">
              <mxPoint x="737.25" y="370.80999999999995" />
              <mxPoint x="737.25" y="174.80999999999995" />
            </Array>
          </mxGeometry>
        </mxCell>
        <mxCell id="bod1k1bSm5_R8_PrJ0vr-4" value="Binary" style="whiteSpace=wrap;html=1;shadow=1;fontSize=10;fillColor=#FFFFFF;strokeColor=#d6b656;horizontal=0;fontFamily=Tahoma;" vertex="1" parent="1">
          <mxGeometry x="580.25" y="338.66999999999996" width="32" height="63.64" as="geometry" />
        </mxCell>
        <mxCell id="bod1k1bSm5_R8_PrJ0vr-53" style="edgeStyle=orthogonalEdgeStyle;rounded=0;orthogonalLoop=1;jettySize=auto;html=1;exitX=1;exitY=0.5;exitDx=0;exitDy=0;entryX=0;entryY=0.5;entryDx=0;entryDy=0;fontFamily=Tahoma;fontSize=8;fillColor=#FFFFFF;strokeColor=#000000;" edge="1" parent="1" source="bod1k1bSm5_R8_PrJ0vr-6" target="bod1k1bSm5_R8_PrJ0vr-45">
          <mxGeometry relative="1" as="geometry" />
        </mxCell>
        <mxCell id="bod1k1bSm5_R8_PrJ0vr-6" value="Dense-[100-relu]" style="whiteSpace=wrap;html=1;shadow=1;fontSize=10;fillColor=#FFF2CC;strokeColor=#999999;horizontal=0;fontFamily=Tahoma;" vertex="1" parent="1">
          <mxGeometry x="835" y="82.91893617021275" width="32" height="184.9685106382979" as="geometry" />
        </mxCell>
        <mxCell id="bod1k1bSm5_R8_PrJ0vr-60" style="edgeStyle=orthogonalEdgeStyle;rounded=0;orthogonalLoop=1;jettySize=auto;html=1;exitX=1;exitY=0.5;exitDx=0;exitDy=0;entryX=0;entryY=0.5;entryDx=0;entryDy=0;fontFamily=arial;fontSize=8;fillColor=#FFFFFF;strokeColor=#000000;" edge="1" parent="1" source="bod1k1bSm5_R8_PrJ0vr-8" target="bod1k1bSm5_R8_PrJ0vr-59">
          <mxGeometry relative="1" as="geometry" />
        </mxCell>
        <mxCell id="bod1k1bSm5_R8_PrJ0vr-8" value="&amp;nbsp;Dense [64-relu]" style="whiteSpace=wrap;html=1;shadow=1;fontSize=10;fillColor=#FFF2CC;strokeColor=#999999;horizontal=0;fontFamily=Tahoma;" vertex="1" parent="1">
          <mxGeometry x="968" y="117.09" width="32" height="117.91" as="geometry" />
        </mxCell>
        <mxCell id="bod1k1bSm5_R8_PrJ0vr-74" style="edgeStyle=orthogonalEdgeStyle;rounded=0;orthogonalLoop=1;jettySize=auto;html=1;exitX=1;exitY=0.5;exitDx=0;exitDy=0;entryX=0;entryY=0.5;entryDx=0;entryDy=0;shadow=1;strokeColor=#000000;fontFamily=arial;fontSize=8;fillColor=#FFFFFF;" edge="1" parent="1" source="bod1k1bSm5_R8_PrJ0vr-12" target="bod1k1bSm5_R8_PrJ0vr-16">
          <mxGeometry relative="1" as="geometry" />
        </mxCell>
        <mxCell id="bod1k1bSm5_R8_PrJ0vr-12" value="Dense (tanh)" style="whiteSpace=wrap;html=1;shadow=1;fontSize=10;fillColor=#FFF2CC;strokeColor=#666666;horizontal=0;fontFamily=Tahoma;" vertex="1" parent="1">
          <mxGeometry x="639.25" y="13.809999999999945" width="32" height="40" as="geometry" />
        </mxCell>
        <mxCell id="bod1k1bSm5_R8_PrJ0vr-44" style="edgeStyle=orthogonalEdgeStyle;rounded=0;orthogonalLoop=1;jettySize=auto;html=1;exitX=1;exitY=0.5;exitDx=0;exitDy=0;entryX=0;entryY=0.5;entryDx=0;entryDy=0;fontFamily=Tahoma;fontSize=8;" edge="1" parent="1" source="bod1k1bSm5_R8_PrJ0vr-13" target="bod1k1bSm5_R8_PrJ0vr-6">
          <mxGeometry relative="1" as="geometry">
            <Array as="points">
              <mxPoint x="801" y="175" />
            </Array>
          </mxGeometry>
        </mxCell>
        <mxCell id="bod1k1bSm5_R8_PrJ0vr-13" value="Concatatanetion" style="whiteSpace=wrap;html=1;shadow=1;fontSize=10;fillColor=#FFFFFF;strokeColor=#999999;horizontal=0;fontFamily=Tahoma;" vertex="1" parent="1">
          <mxGeometry x="769.02" y="20" width="32" height="360" as="geometry" />
        </mxCell>
        <mxCell id="bod1k1bSm5_R8_PrJ0vr-14" style="edgeStyle=orthogonalEdgeStyle;rounded=0;orthogonalLoop=1;jettySize=auto;html=1;exitX=1;exitY=0.5;exitDx=0;exitDy=0;entryX=0;entryY=0.5;entryDx=0;entryDy=0;" edge="1" parent="1" source="bod1k1bSm5_R8_PrJ0vr-15" target="bod1k1bSm5_R8_PrJ0vr-12">
          <mxGeometry relative="1" as="geometry" />
        </mxCell>
        <mxCell id="bod1k1bSm5_R8_PrJ0vr-15" value="Cat-1" style="whiteSpace=wrap;html=1;shadow=1;fontSize=10;fillColor=#FFFFFF;strokeColor=#d6b656;horizontal=0;fontFamily=Tahoma;" vertex="1" parent="1">
          <mxGeometry x="580.25" y="8.809999999999945" width="32" height="50" as="geometry" />
        </mxCell>
        <mxCell id="bod1k1bSm5_R8_PrJ0vr-16" value="Dense (tanh)" style="whiteSpace=wrap;html=1;shadow=1;fontSize=10;fillColor=#FFF2CC;strokeColor=#666666;horizontal=0;fontFamily=Tahoma;" vertex="1" parent="1">
          <mxGeometry x="695.25" y="20" width="32" height="28.81" as="geometry" />
        </mxCell>
        <mxCell id="bod1k1bSm5_R8_PrJ0vr-17" value="" style="edgeStyle=orthogonalEdgeStyle;rounded=0;orthogonalLoop=1;jettySize=auto;html=1;fontFamily=Verdana;fontSize=10;" edge="1" parent="1">
          <mxGeometry relative="1" as="geometry">
            <Array as="points">
              <mxPoint x="737.25" y="33.809999999999945" />
              <mxPoint x="737.25" y="174.80999999999995" />
            </Array>
            <mxPoint x="728.25" y="33.86882352941166" as="sourcePoint" />
            <mxPoint x="770.0200000000002" y="174.81000000000017" as="targetPoint" />
          </mxGeometry>
        </mxCell>
        <mxCell id="bod1k1bSm5_R8_PrJ0vr-18" style="edgeStyle=orthogonalEdgeStyle;rounded=0;orthogonalLoop=1;jettySize=auto;html=1;exitX=1;exitY=0.5;exitDx=0;exitDy=0;entryX=0;entryY=0.5;entryDx=0;entryDy=0;" edge="1" parent="1">
          <mxGeometry relative="1" as="geometry">
            <mxPoint x="728.25" y="96.80999999999995" as="sourcePoint" />
            <mxPoint x="770.0200000000002" y="174.80999999999972" as="targetPoint" />
            <Array as="points">
              <mxPoint x="737.25" y="96.80999999999995" />
              <mxPoint x="737.25" y="174.80999999999995" />
            </Array>
          </mxGeometry>
        </mxCell>
        <mxCell id="bod1k1bSm5_R8_PrJ0vr-19" value="&lt;font style=&quot;font-size: 18px&quot;&gt;.......&lt;/font&gt;" style="text;html=1;strokeColor=none;fillColor=#FFFFFF;align=center;verticalAlign=middle;whiteSpace=wrap;rounded=0;rotation=90;" vertex="1" parent="1">
          <mxGeometry x="570" y="142.55999999999995" width="52.5" height="30" as="geometry" />
        </mxCell>
        <mxCell id="bod1k1bSm5_R8_PrJ0vr-20" value="" style="group" vertex="1" connectable="0" parent="1">
          <mxGeometry x="580.25" y="72.59999999999991" width="147" height="50" as="geometry" />
        </mxCell>
        <mxCell id="bod1k1bSm5_R8_PrJ0vr-73" style="edgeStyle=orthogonalEdgeStyle;rounded=0;orthogonalLoop=1;jettySize=auto;html=1;exitX=1;exitY=0.5;exitDx=0;exitDy=0;entryX=0;entryY=0.5;entryDx=0;entryDy=0;shadow=1;strokeColor=#000000;fontFamily=arial;fontSize=8;fillColor=#FFFFFF;" edge="1" parent="bod1k1bSm5_R8_PrJ0vr-20" source="bod1k1bSm5_R8_PrJ0vr-21" target="bod1k1bSm5_R8_PrJ0vr-22">
          <mxGeometry relative="1" as="geometry" />
        </mxCell>
        <mxCell id="bod1k1bSm5_R8_PrJ0vr-21" value="Dense (tanh)" style="whiteSpace=wrap;html=1;shadow=1;fontSize=10;fillColor=#FFF2CC;strokeColor=#666666;horizontal=0;fontFamily=Tahoma;" vertex="1" parent="bod1k1bSm5_R8_PrJ0vr-20">
          <mxGeometry x="61" y="5" width="32" height="40" as="geometry" />
        </mxCell>
        <mxCell id="bod1k1bSm5_R8_PrJ0vr-22" value="Dense (tanh)" style="whiteSpace=wrap;html=1;shadow=1;fontSize=10;fillColor=#FFF2CC;strokeColor=#666666;horizontal=0;fontFamily=Tahoma;" vertex="1" parent="bod1k1bSm5_R8_PrJ0vr-20">
          <mxGeometry x="115" y="9.21" width="32" height="30.79" as="geometry" />
        </mxCell>
        <mxCell id="bod1k1bSm5_R8_PrJ0vr-24" style="edgeStyle=orthogonalEdgeStyle;rounded=0;orthogonalLoop=1;jettySize=auto;html=1;exitX=1;exitY=0.5;exitDx=0;exitDy=0;entryX=0;entryY=0.5;entryDx=0;entryDy=0;" edge="1" parent="bod1k1bSm5_R8_PrJ0vr-20" source="bod1k1bSm5_R8_PrJ0vr-25" target="bod1k1bSm5_R8_PrJ0vr-21">
          <mxGeometry relative="1" as="geometry" />
        </mxCell>
        <mxCell id="bod1k1bSm5_R8_PrJ0vr-25" value="Cat-2" style="whiteSpace=wrap;html=1;shadow=1;fontSize=10;fillColor=#FFFFFF;strokeColor=#d6b656;horizontal=0;fontFamily=Tahoma;" vertex="1" parent="bod1k1bSm5_R8_PrJ0vr-20">
          <mxGeometry width="32" height="50" as="geometry" />
        </mxCell>
        <mxCell id="bod1k1bSm5_R8_PrJ0vr-26" value="" style="group" vertex="1" connectable="0" parent="1">
          <mxGeometry x="580.25" y="188.80999999999995" width="147" height="50" as="geometry" />
        </mxCell>
        <mxCell id="bod1k1bSm5_R8_PrJ0vr-27" value="Dense&lt;br&gt;(tanh)" style="whiteSpace=wrap;html=1;shadow=1;fontSize=10;fillColor=#FFF2CC;strokeColor=#666666;horizontal=0;fontFamily=Tahoma;" vertex="1" parent="bod1k1bSm5_R8_PrJ0vr-26">
          <mxGeometry x="59.75" y="3" width="33.25" height="45" as="geometry" />
        </mxCell>
        <mxCell id="bod1k1bSm5_R8_PrJ0vr-30" style="edgeStyle=orthogonalEdgeStyle;rounded=0;orthogonalLoop=1;jettySize=auto;html=1;exitX=1;exitY=0.5;exitDx=0;exitDy=0;entryX=0;entryY=0.5;entryDx=0;entryDy=0;" edge="1" parent="bod1k1bSm5_R8_PrJ0vr-26" source="bod1k1bSm5_R8_PrJ0vr-31" target="bod1k1bSm5_R8_PrJ0vr-27">
          <mxGeometry relative="1" as="geometry" />
        </mxCell>
        <mxCell id="bod1k1bSm5_R8_PrJ0vr-31" value="Cat-N" style="whiteSpace=wrap;html=1;shadow=1;fontSize=10;fillColor=#FFFFFF;strokeColor=#d6b656;horizontal=0;fontFamily=Tahoma;" vertex="1" parent="bod1k1bSm5_R8_PrJ0vr-26">
          <mxGeometry width="32" height="50" as="geometry" />
        </mxCell>
        <mxCell id="bod1k1bSm5_R8_PrJ0vr-32" style="edgeStyle=orthogonalEdgeStyle;rounded=0;orthogonalLoop=1;jettySize=auto;html=1;entryX=0;entryY=0.5;entryDx=0;entryDy=0;exitX=1;exitY=0.5;exitDx=0;exitDy=0;" edge="1" parent="1" source="bod1k1bSm5_R8_PrJ0vr-27">
          <mxGeometry relative="1" as="geometry">
            <mxPoint x="728.25" y="213.04529411764725" as="sourcePoint" />
            <mxPoint x="770.0200000000002" y="174.80999999999972" as="targetPoint" />
            <Array as="points">
              <mxPoint x="737" y="214" />
              <mxPoint x="737" y="175" />
            </Array>
          </mxGeometry>
        </mxCell>
        <mxCell id="bod1k1bSm5_R8_PrJ0vr-33" value="&lt;font face=&quot;Tahoma&quot; style=&quot;&quot;&gt;&lt;font style=&quot;font-size: 8px;&quot;&gt;[1-sigmoid]&lt;/font&gt;&lt;br&gt;&lt;/font&gt;" style="ellipse;whiteSpace=wrap;html=1;aspect=fixed;fillColor=#FFCE9F;strokeColor=#000000;" vertex="1" parent="1">
          <mxGeometry x="1111" y="154" width="43" height="43" as="geometry" />
        </mxCell>
        <mxCell id="bod1k1bSm5_R8_PrJ0vr-49" style="edgeStyle=orthogonalEdgeStyle;rounded=0;orthogonalLoop=1;jettySize=auto;html=1;exitX=1;exitY=0.5;exitDx=0;exitDy=0;entryX=0;entryY=0.5;entryDx=0;entryDy=0;fontFamily=Tahoma;fontSize=8;fillColor=#FFFFFF;strokeColor=#999999;" edge="1" parent="1" target="bod1k1bSm5_R8_PrJ0vr-33">
          <mxGeometry relative="1" as="geometry">
            <mxPoint x="1080" y="175.32000000000005" as="sourcePoint" />
            <mxPoint x="1121" y="173.8067021276595" as="targetPoint" />
          </mxGeometry>
        </mxCell>
        <mxCell id="bod1k1bSm5_R8_PrJ0vr-57" style="edgeStyle=orthogonalEdgeStyle;rounded=0;orthogonalLoop=1;jettySize=auto;html=1;exitX=1;exitY=0.5;exitDx=0;exitDy=0;entryX=0;entryY=0.5;entryDx=0;entryDy=0;fontFamily=Tahoma;fontSize=8;fillColor=#FFFFFF;strokeColor=#000000;" edge="1" parent="1" source="bod1k1bSm5_R8_PrJ0vr-45" target="bod1k1bSm5_R8_PrJ0vr-46">
          <mxGeometry relative="1" as="geometry" />
        </mxCell>
        <mxCell id="bod1k1bSm5_R8_PrJ0vr-45" value="BatchNorm" style="whiteSpace=wrap;html=1;shadow=1;fontSize=10;fillColor=#D4E1F5;strokeColor=#999999;horizontal=0;fontFamily=Tahoma;" vertex="1" parent="1">
          <mxGeometry x="887" y="82.92" width="17" height="184.97" as="geometry" />
        </mxCell>
        <mxCell id="bod1k1bSm5_R8_PrJ0vr-50" style="edgeStyle=orthogonalEdgeStyle;rounded=0;orthogonalLoop=1;jettySize=auto;html=1;exitX=1;exitY=0.5;exitDx=0;exitDy=0;entryX=0;entryY=0.5;entryDx=0;entryDy=0;fontFamily=Tahoma;fontSize=8;fillColor=#FFFFFF;strokeColor=#050505;" edge="1" parent="1" source="bod1k1bSm5_R8_PrJ0vr-46" target="bod1k1bSm5_R8_PrJ0vr-8">
          <mxGeometry relative="1" as="geometry" />
        </mxCell>
        <mxCell id="bod1k1bSm5_R8_PrJ0vr-46" value="Dropout (0.2)" style="whiteSpace=wrap;html=1;shadow=1;fontSize=10;fillColor=#D4E1F5;strokeColor=#999999;horizontal=0;fontFamily=Tahoma;" vertex="1" parent="1">
          <mxGeometry x="919" y="82.92" width="18" height="184.97" as="geometry" />
        </mxCell>
        <mxCell id="bod1k1bSm5_R8_PrJ0vr-61" style="edgeStyle=orthogonalEdgeStyle;rounded=0;orthogonalLoop=1;jettySize=auto;html=1;exitX=1;exitY=0.5;exitDx=0;exitDy=0;entryX=0;entryY=0.5;entryDx=0;entryDy=0;fontFamily=arial;fontSize=8;fillColor=#FFFFFF;strokeColor=#000000;" edge="1" parent="1" source="bod1k1bSm5_R8_PrJ0vr-59">
          <mxGeometry relative="1" as="geometry">
            <mxPoint x="1067.75" y="175.32000000000005" as="targetPoint" />
          </mxGeometry>
        </mxCell>
        <mxCell id="bod1k1bSm5_R8_PrJ0vr-59" value="&amp;nbsp;Dense [32-relu]" style="whiteSpace=wrap;html=1;shadow=1;fontSize=10;fillColor=#FFF2CC;strokeColor=#999999;horizontal=0;fontFamily=Tahoma;" vertex="1" parent="1">
          <mxGeometry x="1018" y="117.09000000000002" width="32" height="117.91" as="geometry" />
        </mxCell>
        <mxCell id="bod1k1bSm5_R8_PrJ0vr-75" value="" style="edgeStyle=orthogonalEdgeStyle;rounded=0;orthogonalLoop=1;jettySize=auto;html=1;shadow=1;strokeColor=#000000;fontFamily=arial;fontSize=8;fillColor=#FFFFFF;" edge="1" parent="1" source="bod1k1bSm5_R8_PrJ0vr-66" target="bod1k1bSm5_R8_PrJ0vr-33">
          <mxGeometry relative="1" as="geometry" />
        </mxCell>
        <mxCell id="bod1k1bSm5_R8_PrJ0vr-66" value="BatchNorm" style="whiteSpace=wrap;html=1;shadow=1;fontSize=10;fillColor=#D4E1F5;strokeColor=#999999;horizontal=0;fontFamily=Tahoma;" vertex="1" parent="1">
          <mxGeometry x="1064.75" y="115" width="17" height="123" as="geometry" />
        </mxCell>
      </root>
    </mxGraphModel>
  </diagram>
</mxfile>
